{"title":"Battle Los Angeles 2011 V2 R5 XViD AC3 DTRG - SAFCuk009","uid":6298403,"size":1804355190,"categoryP":"video","categoryS":"movies","magnet":"?xt=urn:btih:b69de94b85affa712992d438f2756461ca1167a9&amp;dn=Battle+Los+Angeles+2011+V2+R5+XViD+AC3+DTRG+-+SAFCuk009&amp;tr=udp%3A%2F%2Ftracker.openbittorrent.com%3A80&amp;tr=udp%3A%2F%2Fopen.demonii.com%3A1337&amp;tr=udp%3A%2F%2Ftracker.coppersurfer.tk%3A6969&amp;tr=udp%3A%2F%2Fexodus.desync.com%3A6969","seeders":0,"leechers":0,"uploader":"SAFCukO09","files":3,"time":1302074935,"description":"\n\n\nFormat                           : AVI\nFormat/Info                      : Audio Video Interleave\nFile size                        : 1.68 GiB\nDuration                         : 1h 51mn\nOverall bit rate                 : 2 160 Kbps\nWriting application              : Nandub v1.0rc2\nWriting library                  : VirtualDub build 32839/release\n\nVideo\nID                               : 0\nFormat                           : MPEG-4 Visual\nFormat profile                   : Advanced Simple@L5\nFormat settings, BVOP            : Yes\nFormat settings, QPel            : No\nFormat settings, GMC             : No warppoints\nFormat settings, Matrix          : Custom\nCodec ID                         : XVID\nCodec ID/Hint                    : XviD\nDuration                         : 1h 51mn\nBit rate                         : 1 703 Kbps\nWidth                            : 720 pixels\nHeight                           : 304 pixels\nDisplay aspect ratio             : 2.35:1\nFrame rate                       : 25.000 fps\nColor space                      : YUV\nChroma subsampling               : 4:2:0\nBit depth                        : 8 bits\nScan type                        : Progressive\nBits/(Pixel*Frame)               : 0.311\nStream size                      : 1.32 GiB (79%)\nWriting library                  : XviD 1.2.1 (UTC 2008-12-04)\n\nAudio\nID                               : 1\nFormat                           : AC-3\nFormat/Info                      : Audio Coding 3\nMode extension                   : CM (complete main)\nCodec ID                         : 2000\nDuration                         : 1h 51mn\nBit rate mode                    : Constant\nBit rate                         : 448 Kbps\nChannel(s)                       : 6 channels\nChannel positions                : Front: L C R, Side: L R, LFE\nSampling rate                    : 48.0 KHz\nBit depth                        : 16 bits\nStream size                      : 357 MiB (21%)\nAlignment                        : Split accross interleaves\nInterleave, duration             : 40 ms (1.00 video frame)\nInterleave, preload duration     : 500 ms\n\n\n\n &lt;a href=&quot;\nhttp://www.imdb.com/title/tt1217613/&quot; rel=&quot;nofollow&quot; target=&quot;_NEW&quot;&gt;\nhttp://www.imdb.com/title/tt1217613/&lt;/a&gt;\n\n\n\n\n\n\n\nUsers: 6.3/10 (16,984 votes) 411 reviews | Critics: 179 reviews Metascore: 37/100 (based on 35 reviews from Metacritic.com)\n\nA Marine Staff Sergeant who has just had his retirement approved goes back into the line of duty in order to assist a 2nd Lieutenant and his platoon as they fight to reclaim the city of Los Angeles from alien invaders.\nDirector:\nJonathan Liebesman\nWriter:\nChristopher Bertolini\nStars:\nAaron Eckhart, Michelle Rodriguez and Bridget Moynahan \n\n\n\n\n\n\n\n &lt;a href=&quot;\nhttp://img829.imageshack.us/img829/1457/vlcsnap2011040606h10m40.png&quot; rel=&quot;nofollow&quot; target=&quot;_NEW&quot;&gt;\nhttp://img829.imageshack.us/img829/1457/vlcsnap2011040606h10m40.png&lt;/a&gt; &lt;a href=&quot;\nhttp://img33.imageshack.us/img33/2796/vlcsnap2011040606h10m22.png&quot; rel=&quot;nofollow&quot; target=&quot;_NEW&quot;&gt;\nhttp://img33.imageshack.us/img33/2796/vlcsnap2011040606h10m22.png&lt;/a&gt; &lt;a href=&quot;\nhttp://img823.imageshack.us/img823/8985/vlcsnap2011040606h11m51.png&quot; rel=&quot;nofollow&quot; target=&quot;_NEW&quot;&gt;\nhttp://img823.imageshack.us/img823/8985/vlcsnap2011040606h11m51.png&lt;/a&gt;\n\n\n\nSources:\n\nRussian DVD-9\nInoplanetnoe.vtorzhenie.Bitva.za.Los-Andzheles.2011.D.DVD.ELEKTRI4KA.........Thanks\nPeeraccess ..................... Thanks\n\n\n\n\nV2 while i had time purely because of the sync issues on the 1st release..........................\n\n\n\nGreetz to Imagine ,Flawl3ss,DiLLoN,BDK,NOiR,TOXiCiNK,THC,Ez,Rx,Boobyblue\n\n\n\n","torrent":{"xt":"urn:btih:b69de94b85affa712992d438f2756461ca1167a9","amp;dn":"Battle+Los+Angeles+2011+V2+R5+XViD+AC3+DTRG+-+SAFCuk009","amp;tr":["udp%3A%2F%2Ftracker.openbittorrent.com%3A80","udp%3A%2F%2Fopen.demonii.com%3A1337","udp%3A%2F%2Ftracker.coppersurfer.tk%3A6969","udp%3A%2F%2Fexodus.desync.com%3A6969"],"infoHash":"b69de94b85affa712992d438f2756461ca1167a9","infoHashBuffer":{"type":"Buffer","data":[182,157,233,75,133,175,250,113,41,146,212,56,242,117,100,97,202,17,103,169]},"announce":[],"urlList":[]}}